<svg width="161" height="161" viewBox="0 0 161 161" fill="none" xmlns="http://www.w3.org/2000/svg">
<g clip-path="url(#clip0_612_8138)">
<rect x="0.75" y="0.0146484" width="160" height="160" rx="80" fill="#F2F4F8"/>
<path d="M80.7497 36.6631C88.9284 36.6631 96.7721 39.9121 102.555 45.6953C108.339 51.4785 111.588 59.3222 111.588 67.5008C111.588 75.6795 108.339 83.5232 102.555 89.3064C96.7721 95.0896 88.9284 98.3386 80.7497 98.3386C72.5711 98.3386 64.7274 95.0896 58.9442 89.3064C53.1609 83.5232 49.912 75.6795 49.912 67.5008C49.912 59.3222 53.1609 51.4785 58.9442 45.6953C64.7274 39.9121 72.5711 36.6631 80.7497 36.6631ZM80.7497 113.757C114.825 113.757 142.425 127.557 142.425 144.595V160.014H19.0742V144.595C19.0742 127.557 46.674 113.757 80.7497 113.757Z" fill="#004EC2"/>
</g>
<defs>
<clipPath id="clip0_612_8138">
<rect x="0.75" y="0.0146484" width="160" height="160" rx="80" fill="white"/>
</clipPath>
</defs>
</svg>
