<?xml version="1.0" encoding="iso-8859-1"?>
<!-- Uploaded to: SVG Repo, www.svgrepo.com, Generator: SVG Repo Mixer Tools -->
<svg height="800px" width="800px" version="1.1" id="Layer_1" xmlns="http://www.w3.org/2000/svg" xmlns:xlink="http://www.w3.org/1999/xlink" 
	 viewBox="0 0 392.598 392.598" xml:space="preserve">
<path style="fill:#FFFFFF;" d="M104.049,261.947V121.859c0-18.036,14.675-32.711,32.711-32.711h81.39V32.711
	c0-6.012-4.848-10.925-10.925-10.925H32.743c-6.012,0-10.925,4.848-10.925,10.925v327.111c0,6.012,4.848,10.925,10.925,10.925
	h174.481c6.012,0,10.925-4.848,10.925-10.925v-65.164h-81.455C118.723,294.659,104.049,279.984,104.049,261.947z"/>
<g>
	<path style="fill:#FFC10D;" d="M255.257,217.923c-3.814,3.232-10.02,3.556-13.964,0l-115.459-96.453c0,0.065,0,0.259,0,0.323
		v140.154c0,6.012,4.848,10.925,10.925,10.925h223.095c6.012,0,10.925-4.848,10.925-10.925V121.859c0-0.065,0-0.259,0-0.323
		L255.257,217.923z"/>
	<polygon style="fill:#FFC10D;" points="147.232,110.869 248.275,195.362 349.382,110.869 	"/>
</g>
<g>
	<path style="fill:#194F82;" d="M155.055,48.162c0-6.012-4.848-10.925-10.925-10.925H95.838c-6.012,0-10.925,4.848-10.925,10.925
		s4.848,10.925,10.925,10.925h48.291C150.141,59.022,155.055,54.174,155.055,48.162z"/>
	<path style="fill:#194F82;" d="M60.347,336.356H48.711c-6.012,0-10.925,4.848-10.925,10.925s4.848,10.925,10.925,10.925h11.766
		c6.012,0,10.925-4.848,10.925-10.925C71.273,341.204,66.424,336.356,60.347,336.356z"/>
	<path style="fill:#194F82;" d="M125.834,336.356h-11.766c-6.012,0-10.925,4.848-10.925,10.925s4.848,10.925,10.925,10.925h11.766
		c6.012,0,10.925-4.848,10.925-10.925C136.695,341.204,131.846,336.356,125.834,336.356z"/>
	<path style="fill:#194F82;" d="M179.556,358.141h11.766c6.012,0,10.925-4.848,10.925-10.925c0-6.012-4.848-10.925-10.925-10.925
		h-11.766c-6.012,0-10.925,4.848-10.925,10.925S173.479,358.141,179.556,358.141z"/>
	<path style="fill:#194F82;" d="M359.855,89.083H239.871V32.711C239.871,14.675,225.196,0,207.16,0H32.743
		C14.707,0,0.032,14.675,0.032,32.711v327.111c0,18.101,14.675,32.776,32.711,32.776h174.481c18.036,0,32.711-14.675,32.711-32.711
		v-65.228h119.919c18.036,0,32.711-14.675,32.711-32.711V121.859C392.566,103.758,377.891,89.083,359.855,89.083z M370.78,261.947
		c0,6.012-4.848,10.925-10.925,10.925h-223.16c-6.012,0-10.925-4.848-10.925-10.925V121.859c0-0.065,0-0.259,0-0.323l115.459,96.388
		c3.943,3.556,10.214,3.232,13.964,0l115.459-96.388c0,0.065,0,0.259,0,0.323v140.089L370.78,261.947L370.78,261.947z
		 M218.085,359.822c0,6.012-4.848,10.925-10.925,10.925H32.743c-6.012,0-10.925-4.848-10.925-10.925V32.711
		c0-6.012,4.848-10.925,10.925-10.925h174.481c6.012,0,10.925,4.848,10.925,10.925v56.436h-81.455
		c-18.036,0-32.711,14.675-32.711,32.711v140.154c0,18.036,14.675,32.711,32.711,32.711h81.39V359.822z M147.232,110.869h202.15
		l-101.107,84.493L147.232,110.869z"/>
</g>
<path style="fill:#56ACE0;" d="M56.404,216.889h-12.8v76.994c0,12.024,9.762,21.786,21.786,21.786h109.059
	c11.766,0,21.333-9.374,21.721-21.01h-59.475c-18.036,0-32.711-14.675-32.711-32.711V121.859c0-18.036,14.675-32.711,32.711-32.711
	h57.341c-3.556-7.24-10.925-12.347-19.523-12.347H65.455c-12.024,0-21.786,9.762-21.786,21.786v37.56H80.84
	c6.012,0,10.925,4.848,10.925,10.925c0,6.012-4.848,10.925-10.925,10.925H43.604v37.172h12.8c6.012,0,10.925,4.848,10.925,10.925
	C67.394,212.04,62.481,216.889,56.404,216.889z"/>
</svg>